/* XPM */
static char *f04c7ac019db4ce0a6d5fce2b4687cb14Is3DlEnLGlxhZrm[] = {
/* columns rows colors chars-per-pixel */
"50 50 13 1 ",
"  c None",
". c black",
"X c #010000",
"o c #000100",
"O c #000001",
"+ c #786207",
"@ c #796207",
"# c #F0C40E",
"$ c #F1C40E",
"% c #F0C40F",
"& c #F1C40F",
"* c #F0C50F",
"= c #F1C50F",
/* pixels */
"                    .............                 ",
"                    .............                 ",
"                    .............                 ",
"              ......&&&&===&=&===......           ",
"              ......=&&&&&&&&&&&&......           ",
"              ......&&&&&&&&&=&&&......           ",
"           ...&&=&&&&&&&&&&&&&&&&&&&&&&...        ",
"           ...&&==&&&&&&&=&&&&&&&&&&&&&...        ",
"           ...&&&&&&&&&&&&&=&&&&&&&&&&&...        ",
"        ...=&&=&&&&&%&&&=&&&&&&&&&&&&&&&&&...     ",
"        ...=&&&&%&&&%&&&&&&&%&&&&&&&&&&&&&...     ",
"        ...&&&&&&&=&&&&=&&%&&&&&&&&&&&&&&&...     ",
"     ...@@+&&&&&&&&&%=&@@@@&=&&&&&&&&&&&&&+++...  ",
"     ...=%&&&&&&&&&&&%&....&&&&&&&&&&&&&&&&&&...  ",
"     ...&&&&&&&&&#&&&&=....=&&&&&&&&&&&&&&&&&...  ",
"     ...&&&&&&&&&&&&&&=....&&&%&&&&&&&&&&&&&&.X.  ",
"     ...&&&&&&&&&&&&&&&&&&&&&&&&&&&&&&&......     ",
"     ...&&&&&&&&&&&&&&&&&&&&&&&&&&&&&&&......     ",
"     ...&&&&&&&&&&&&&&&&&&&&&&&&=&==&&&......     ",
"  ...&&&&&&&&&&&&&&&&&&&&&&&&&.........           ",
"  ...&&&&&&&&&&&&&&&&#&&&&&&&&.........           ",
"  ...&&&&&&&&&&&&&&&&&&&&&&&&&.........           ",
"  ...&&&&&&&&&&&&&&&..........                    ",
"  ...&&&&&&#&&&&&&&&..........                    ",
"  ...&&&&&&&&&&&&&&&..........                    ",
"  ...&&&&&&&&&&&&&&&&&&&&&&...                    ",
"  ...&&&&&&&&&&&&&&&&&&&&&&...                    ",
"  ...&&&&&&&&&&&#&&&&&&&&&&...                    ",
"  ...&&&&&&&&&&&=&&&&&&&&&&&&&.........           ",
"  ...&&&&&&&&&&&==&&&&&&&&&&&&.........           ",
"  ...&&&&&&&&&&&&&&&&&&&&&&&==.........           ",
"     ...&&&&&&&&&&&&&&&&&&&&====&&&&&&&......     ",
"     ...&&===&&&&&&&&&&&&&&&&&&&&&&&&&&......     ",
"     ...&&#&=&&&&&&&&&&&&&&&&&&&&&&&&&*......     ",
"     ...&&&&&&&&*&&&&&&&&&&&*&&&&&*&&&&&&&&&&...  ",
"     ...&&&&&&&&&&&&&&&&&&&&&&&&&&&&&&&&&&&&&...  ",
"     ...&&&&&&&&&&&&&&&&&&&&&&&&&&&&&&&&====&...  ",
"     ...+++&&&=&&&&&&&&&&&&&&&&&&&&&&&&&==@@@...  ",
"        ...&&&&&&&&&&&&&&&&&&&&&&&&&&&&&&&...     ",
"        ...&&&&=&&&&&&&&&&&&&&&&&&&&&&&&&&...     ",
"        ...&&&&&&&&&&&&&&&&&&&&&&&&&&&&=&%...     ",
"           ...&&&&&&&&&&&&&&&&&&&&&&&&&...        ",
"           ...&&&&&&&&&&&&&&&&&&&&&&&&=...        ",
"           ...&&&&&&&&&&&&&&&&&&&&&&&&=...        ",
"              ......&&&&&&&&&&&&&......           ",
"              ......&&&&&&&&&&&&&......           ",
"              ......&&&&&&&&=&==&......           ",
"                    .............                 ",
"                    .............                 ",
"                    .............                 "
};
