/* XPM */
static char *d849a26ebe7c4c4fc5918dbfc65145ebrLaOiXIM0BrBybeF[] = {
/* columns rows colors chars-per-pixel */
"50 50 102 2 ",
"   c #0B351F",
".  c #0E3F1F",
"X  c #123D1F",
"o  c #012B22",
"O  c #033323",
"+  c #093521",
"@  c #063B25",
"#  c #0A3D24",
"$  c #0A3F28",
"%  c #113F21",
"&  c #16451F",
"*  c #1C4C1D",
"=  c #204D1C",
"-  c #2F5D17",
";  c #25541D",
":  c #255A1E",
">  c #2A5E1C",
",  c #2C641E",
"<  c #2F681F",
"1  c #346217",
"2  c #386615",
"3  c #376816",
"4  c #3B6D17",
"5  c #32671B",
"6  c #316A1F",
"7  c #396D1A",
"8  c #3E7017",
"9  c #3D7219",
"0  c #074026",
"q  c #0A4226",
"w  c #0F4826",
"e  c #0C4428",
"r  c #0E4A2A",
"t  c #134421",
"y  c #164A22",
"u  c #174A22",
"i  c #174D23",
"p  c #164F23",
"a  c #134924",
"s  c #124B25",
"d  c #104926",
"f  c #154D24",
"g  c #194B20",
"h  c #1B4E21",
"j  c #114B29",
"k  c #134C29",
"l  c #124F29",
"z  c #114D2A",
"x  c #104E2B",
"c  c #175125",
"v  c #1F5220",
"b  c #1C5421",
"n  c #1E5420",
"m  c #1E5620",
"M  c #1D5623",
"N  c #195224",
"B  c #1B5424",
"V  c #1F5823",
"C  c #1F5925",
"Z  c #155229",
"A  c #15552B",
"S  c #12502C",
"D  c #12512C",
"F  c #13522C",
"G  c #14532C",
"H  c #15562D",
"J  c #16562E",
"K  c #1A5629",
"L  c #17582D",
"P  c #1C5B2A",
"I  c #1C5D2A",
"U  c #1D5D2B",
"Y  c #18592C",
"T  c #18592D",
"R  c #1A5B2C",
"E  c #215520",
"W  c #215620",
"Q  c #205721",
"!  c #225620",
"~  c #205920",
"^  c #215A22",
"/  c #245920",
"(  c #235C21",
")  c #265C20",
"_  c #245D22",
"`  c #225D24",
"'  c #285F20",
"]  c #205F28",
"[  c #276021",
"{  c #256125",
"}  c #256226",
"|  c #296221",
" . c #2B6320",
".. c #2B6420",
"X. c #2C6520",
"o. c #2C6722",
"O. c #296524",
"+. c #2F6820",
"@. c #216028",
"#. c #447313",
"$. c #417516",
"%. c #487913",
/* pixels */
"+ R L q q @ O o f X.O O o O O O o O q R L o o O q q O o O O @ 0 G U j q  .t q R L $ o o q q o # X.+ ",
"6 ..s O l @.y o o @ y @.R e B ` Z N 6 | @ O o o O B @.s o O O @ o : 6 q o o : < N O o $ e e q O @ $ ",
"# q O o o E 6 v o t 6 X.q q 6 : @ 4 | s O o o o O < _ $ @ r r O o O N @ o o # t O o o # o.` O x x @ ",
"e r R H O q | #.o - 6 O o o o o O O O q o o H H @ O o @ 6 +.i O O o @ q @ $ H G @ o o $ B 6 X.f 6 6 ",
"6 @ v 6 | q O ~ O O @ O o e U K q @ O @ O # t , 6 # O > 6 ~ @ O G I t @ s 6 _ # e @ o o $ B 7 o g  .",
"* o @ y 7 * o @ @ r J r O O B 6 N o M | Z q O # X.7 @ * c O o o e _ 6 O # f O O u { h o o # e q e f ",
"l $ o o t & @ $ 0 @ @ q q O q q @ O , M O O o o e c S S o o o o o e # o @ x x O O ~ 6 $ @ ~ o.` $ r ",
" .6 i o o @ 0 $ q R H o q o J R q   o o O R L $ o 6 6 # o e e o o @ R I o q S q o o q e @ E X.o o o ",
"O E d r q 0 @ O 6 ' @ o O O o / 6 K O o E 6 y $ q ~ # o q H @.y o o g 6 > o d ` K q $ j I c o O O o ",
"e O g O.C O o @ i $ o l S e @ + O.$.o o s y @ $ S l O @ q + E 6 E @ q # # o > 6 # o O O : 6 M q r r ",
"o t +.6 o o o q @ o , X.g 0 q o @  .o @ @ q q 6 +.q @ o H H l | $.q O o o o $ e A H o O O : %.i 6 6 ",
"# : 6 o o $ K K O ; 6 ~ q o l I s o o q + o 7 > O o o ; 6 E O O : o o + R Z o $ g , 6 + o @ $ + _ O ",
"O q w o O o y 6 E * M q O o @ _ 6 o g } s o 5 j o o o % y O o o @ O t 6 X.k q q @ c +.5 o @ q $ @ O ",
"o o O O O O @ s @ @ q O O o o q f o 6 E o o # q $ x l O @ $ O @ $ $  .6 # @ ~ ..B O + , O O ..O.f $ ",
"O L R O o o q q @ e R j o o o O $ o o o o o o @ $ @ 6 6 q $ O G R e h o o O 0 < V O o o O O o +.N 0 ",
"6 X.w $ N I l @ r q E 6 E o o @ K ] e @ q q @ O O o % ~ @ O ~ 6 E o O o O q w r o o f ] A q q @ o o ",
"t s q V < V + O f } v g 4 q @ / 6 f @ q @ q { : O o $ l e X 7 M o S S @ o O _ [ y q X., + o O e @ O ",
"S 0 @ %.[ @ # O o ; +.$ e O @ $.N O $ @ o O d 6 5 O X.6 @ f E o ..6 c e o o O 6 6 c O O q S S O l H ",
"o O @ o q r L R O O q q O o o @ q q O @ K R @ g 7 q > # O $ O O , & o r L Z q o 5 * o % < , O y 6 | ",
"@ K @.& @ @ f 6 ' q q l q O y ` l @ O o t 6 _ $ O @ $ $ O q 0 @ o o o @ _ 6 + o # s $ 7 > q @ 7 ~ @ ",
"e w [ < O o o t 7 * / O.K e 6 / o o o o O # d @ @ > X.e @ Z .._ o o O @ q q o o q @ o 6 e q O X O o ",
"o q q o o o o o q _ 6 ' q o O @ q q L R O o o o @ 6 M @ 0 @ N 6 6 o   O o o o L Z $ o q q @ L L # o ",
"o Z I # o q U ] # > _ O @ U U s s  .6 % O $ e O o O O @ r @ O M 1 q N Y l o @ q | 6 t @ O o @  .6 t ",
"o + ( 7 g $ t 6 g o x l @ t 6 E > 6 % o o @ q @ o # o t { C @ o $ ' 6 y q q e S s | 4 O q e q e _ $.",
"o o @ , 4 @ o @ @ g X.E o o @ @ + O @ $ o o q , ..o t 6 6 $ o O @ $.& o + X.+.o O e 6 q K X.X.o o 6 ",
"Y S   q @ s Y S $ B X.@ q q O o o q s I Z   o * +.+.* 5 $ q O o @ M @ o + X.# o o @ o O q ~ > O q $ ",
"; 6 # o g < ( q O o o q $ $ ] B q $ 6 _ @ $ e O y 7 t q o r q O q $ o # q e q O O B @.q O @ @ r r o ",
"O s q o $.: q O o $ r r o o % 6 , O % O * | B @ e I r O ~ O.i $ q o O e O.[ # O ' 6 i @ o o _ O.f o ",
"O @ q q ~ o o o t X.6 o O # $ t $.+ o t 6 6 o O @ 6 6 . 6 / o o o L L q f 6 6 o $.N q o o : 6 / o o ",
"O H U s q @ q # 7 | e O @ e q @ y o o = > o O O r w : q O O @ s 5 +.q O o t 5 o e K U e o  ._ o $ e ",
"@ + > 5 f @ @ O 5 + q @ O R ` N O o o t $ o $ ` { $ O O @ O O 5 5 q @ q O O O o y 6 g o o q q @ r r ",
"o O # 6 1 O @ q @ q H r o + 6 E o o o # q @ , 6 f o $ G H o o   @ O r H r o @ $ + + o o @ G S $ N o.",
"q O @ q E @ q $ O o | 6 g q q @ o O H H r q 4 t o o $ E 6 : O O o O o X.6 M e @ q R A s 6 < o O @ { ",
"] C q @ O r e O $ @ o E s q @ $ @ @ $ > 6 B O o o @ @ O v y O @ r @ O O ~ t @ t 6 ~ q e E + o O q $ ",
"c 6 t O E O.# o j O.E @ O O M O.Z q o + | $.O o o @ @ @ o o o M { C q $ 0 O o 9 | # o O q e r r @ o ",
"o e # X.6 y O O o E 6 ` O 2 6 _ q o o @ q e O o @ q j H H O g 6 +.e o o 0 0 @ , e q H H q O +.6 t o ",
"O @ $ 7 v O @ q O O : 7 q E / @ @ K U q @ q q f P r o y 6 ' ; > O O o o @ q @ + O ~ 6 v o o @ [ k + ",
"I @ @ r r @ @ O o o o t O @ @ @ E 6 t o o @ / 6 B @ o o u 5 * o o @ q E } R 0 O o % y o o o O O t ` ",
"+ o ; X.~ @ o l S e @ @ l x @ o O + o o o @ $.* O G x @ o u * O O q B 6  .r S r o q S r o O 0 s X.6 ",
"o o M X.@ O | 6 V q O O f +.6 O @ q @ o O O q q , 6 ` # e o @ $ @ o > 6 # 6 5 $ t 6 +.o o @ q N 7 O ",
"@ q O @ e : 6 n @ @ @ @ @ y 6 : o @ q @ q I U q * b q i ( Y @ @ q e @ o # _ + o 7 | $ l I N @ o O O ",
"O l @.; O + t o # _ { r @ O & & @ r l r o t 6 _ o o q < 6 s o o O Z O.E q @ o + , $ o o : 6 g O x x ",
"_ + ( 6 M o o o y 6 w 0 O o o @ C +._ O O O t 4 f @ * 7 e q O o O O / 6 ~ o o q # o o q q | %.q E o.",
"; o @ | - q I Y # @ q @ O o O h 6 > o # @ O O q e O o O O q Z Y r O o _ 3 o o o Z I + O q e @ q O E ",
"$ q O O @ @ N < M # ` C @ O @ & > O o B ` r e k I ( w @ O v 6 ; o @ q @ f O o o +  .6 o # ` @.@ o o ",
"O.g o o O O O   & +.6 q O q q @ O O > X.B O O h 6 # O q o 9 b o o @ S x o O e l s # # O | 6 t @ e k ",
"' o o o A L O O * 4 O O o l H j o o 6 B O o o o o O O o o o @ q e 6 6 o o g 6 X.o O q f $.# O # 6 6 ",
"$ o # +., t O O # s r $ o o ( 6 E q $ O o @ O O o x U i o O q @ @ E # o + 7 _ o o @ q w o @ q s E e ",
"o O X.5 % o O e e # r { ~ q q ~ 9 @ @ O $ r { Q + o v 6 M o @ O @ @ q e f M @ o @ q $ } ` @ l l @ O ",
"o O / + o o o r X. .o N 6 j q O + o o + $ O f 6 e o o : %.o o j H e o , X.g o O G x o g 6 # @  . .O "
};
