/* XPM */
static char *ea7a8c0ff8bd442997b3aef76d520504lReagwoSBXa19CBN[] = {
/* columns rows colors chars-per-pixel */
"50 50 229 2 ",
"   c #15120E",
".  c #19110E",
"X  c #0E1B16",
"o  c #151512",
"O  c #1B1512",
"+  c #161815",
"@  c #1B1A14",
"#  c #1D1D1B",
"$  c #231A15",
"%  c #271B16",
"&  c #221E1B",
"*  c #301E18",
"=  c #0D271A",
"-  c #072C1D",
";  c #1B2515",
":  c #122C13",
">  c #12251B",
",  c #1C241B",
"<  c #142B1D",
"1  c #1D2B1C",
"2  c #0C321B",
"3  c #163116",
"4  c #1B3414",
"5  c #1E3816",
"6  c #1E341C",
"7  c #1F391A",
"8  c #2A2016",
"9  c #222E15",
"0  c #24221D",
"q  c #2B221E",
"w  c #242A1C",
"e  c #2B2D1C",
"r  c #32251E",
"t  c #332C1D",
"y  c #3A2D1E",
"u  c #233B16",
"i  c #23351E",
"p  c #2D371B",
"a  c #233C1A",
"s  c #34311F",
"d  c #323C1C",
"f  c #0C2721",
"g  c #032D22",
"h  c #0B2C21",
"j  c #172823",
"k  c #152B22",
"l  c #1C2B21",
"z  c #043323",
"x  c #0B3323",
"c  c #053A25",
"v  c #0A3C25",
"b  c #0C3F28",
"n  c #143424",
"m  c #1C3523",
"M  c #133B25",
"N  c #1C3B24",
"B  c #163929",
"V  c #252422",
"C  c #2C2522",
"Z  c #242D23",
"A  c #2E2925",
"S  c #272929",
"D  c #2D2C2A",
"F  c #322621",
"G  c #352A23",
"H  c #3A2C24",
"J  c #322D2A",
"K  c #3D2F28",
"L  c #233423",
"P  c #2B3322",
"I  c #253A23",
"U  c #2C3B24",
"Y  c #253329",
"T  c #2A372C",
"R  c #223B2C",
"E  c #343621",
"W  c #343C23",
"Q  c #33312D",
"!  c #3B322C",
"~  c #353B2C",
"^  c #393C2E",
"/  c #243D32",
"(  c #283D31",
")  c #343433",
"_  c #3A3531",
"`  c #343833",
"'  c #3D3A34",
"]  c #323738",
"[  c #363A39",
"{  c #3C3C3A",
"}  c #412D22",
"|  c #453126",
" . c #44342B",
".. c #46372C",
"X. c #4B3A2F",
"o. c #413631",
"O. c #433B34",
"+. c #4A3C32",
"@. c #413E3A",
"#. c #493F39",
"$. c #503E31",
"%. c #18471F",
"&. c #2C4516",
"*. c #2C4B17",
"=. c #264219",
"-. c #2C441B",
";. c #2D4B1B",
":. c #334A17",
">. c #334C1C",
",. c #3D4F1E",
"<. c #2A581C",
"1. c #3C5215",
"2. c #3D541A",
"3. c #35581C",
"4. c #2F651F",
"5. c #2F681F",
"6. c #326A1E",
"7. c #3B6819",
"8. c #3A701A",
"9. c #0A4226",
"0. c #0C4529",
"q. c #0E4A2A",
"w. c #144425",
"e. c #184523",
"r. c #1B4923",
"t. c #13422B",
"y. c #1C432C",
"u. c #134D2A",
"i. c #1D4B2A",
"p. c #195223",
"a. c #1E5925",
"s. c #14542C",
"d. c #19532C",
"f. c #17582E",
"g. c #1A5B2C",
"h. c #1D5131",
"j. c #284726",
"k. c #354C23",
"l. c #384927",
"z. c #374429",
"x. c #3D4B2B",
"c. c #275427",
"v. c #225C23",
"b. c #365626",
"n. c #2D4332",
"m. c #264835",
"M. c #394738",
"N. c #2F573B",
"B. c #236127",
"V. c #2A6422",
"C. c #2B6525",
"Z. c #43561C",
"A. c #466B1E",
"S. c #447316",
"D. c #40492B",
"F. c #435321",
"G. c #424335",
"H. c #4C4136",
"J. c #424A32",
"K. c #44423D",
"L. c #4A443B",
"P. c #4C4A3E",
"I. c #514136",
"U. c #51463B",
"Y. c #53493D",
"T. c #584B3D",
"R. c #495338",
"E. c #525B38",
"W. c #426236",
"Q. c #383F41",
"!. c #3C4242",
"~. c #3E5244",
"^. c #444643",
"/. c #4A4642",
"(. c #454947",
"). c #4C4A45",
"_. c #474948",
"`. c #4D4D49",
"'. c #524C45",
"]. c #5B4F43",
"[. c #514E4A",
"{. c #495548",
"}. c #535143",
"|. c #595746",
" X c #55524D",
".X c #59544E",
"XX c #565551",
"oX c #595651",
"OX c #575C55",
"+X c #5C5953",
"@X c #60574A",
"#X c #635A4E",
"$X c #615D56",
"%X c #6B5F50",
"&X c #635F58",
"*X c #59634E",
"=X c #5E6156",
"-X c #636056",
";X c #6C6453",
":X c #666853",
">X c #66625C",
",X c #6A655C",
"<X c #6E6A5D",
"1X c #706759",
"2X c #726B5C",
"3X c #76715E",
"4X c #79735E",
"5X c #666760",
"6X c #666961",
"7X c #6C6B61",
"8X c #736E62",
"9X c #757164",
"0X c #767164",
"qX c #7B7665",
"wX c #74746B",
"eX c #797668",
"rX c #7A786A",
"tX c #7D796A",
"yX c #7C7D73",
"uX c #817D6C",
"iX c #848275",
"pX c #898574",
"aX c #84867C",
"sX c #89897B",
"dX c #878B85",
"fX c #8A8D82",
"gX c #8D9085",
"hX c #969683",
"jX c #9BA197",
/* pixels */
" .H K  .| $.+... .} K K K K G | | +.+.+. . .|  . . .H G G F ..O.O.+.! H H H ! G G q } ..+... .| .. .",
"<X$X.X{ U.sXaX8X8X9XtX8X8X-X+X). .fXdXtX8X4X8X8X8X<X&X X@.+.fXyXtXtX8X8X1X<X<X).L.y } sXfXeXqX8X8X8X",
">X$X&XM y.{.$X&X5X7X7X&X>X&X&XXXG uX,X-X8X7X7X7X>X>X$X-X[ +.eX5X>X8X5X>X,X.XW.m.{ ! %X&X>X>X7X6X7X5X",
">X>Xm.0.b j _ >X7XoX&X5X>X>X>X{.P } XX6X>X8X[.>X>X>X>X>XC O.8X&XtX>X5X8X`.{ i.g.J n 0.M `.>X8XXX5X&X",
"&X>XN.v g m t.M.+X_.>X>X$X-X-Xg.s.h A +X[.[.oX>X&X&X&XoXV o.$X&X>X[.&X X^.T k i.t , v 9./ XX_.[.&X&X",
"^./.J D & x v.B.x.[ `.`.^.P.L.w.> @ e G ( J ^.' _ _.).o.Q o.K.! _ ^.`.^.y.u.n @ # o l < Y _ Q ^. X^.",
"F F q H q < E 6.3.q F t.I j M 9.x q.d.M P v n & H H H H H H F q q H q v.V.p.+ O r t H r G G r H K F ",
"uXsXtXtX,XH 0 # V ).g.s.9.S g w.I b.u.> f H d.N G uXjXhXqXuX2X$X[.'.@.S.<.6 s t. XqXtX2X4X3X-XoX). .",
"tX>X<X>XoXQ L ( _ { j.7 S D Q Q @.K.' S V c j.w.O aX3X2X,X<X9X,X>X$X&X{ . + 9.f.c. X>X,X>X>X>X>XK.} ",
"$X&X>X>XM.t.9.x H R v 8 P [.). X+X+X X[ b.4.a.m $ ].oX,X6X<X>X>X&X&X&X+X& q S m U  X>X<XXXXX$X-X@.G ",
"[.$X$X>X{.q.z , x u.s.e.& [.+X+X+X+X`.^.A.C.v n t b N =X>X&X+X,XoX>X,X&X) > 9.H ) _ $X X X$X&X+Xo.H ",
"'./. X X XA Z g.f.z 0.k.J K.).[ ] ).] K.D A l d.h s.g.n.XX`.+X X$XoXoXXX, f.u.z 0.L A M y.K. X X) q ",
"_ * q Q ! D 7.C.%.  . F ! r F q q r & q q F q , $ = 3.8.# J J $ Q ! F C e =.= B.s.- X m B.c.D r J H ",
".X,X%X X'.@.R.e M.6X,X,X;X|.1X1X$X'./. .@XdXyXyXG.U I j.! .X'./.H I.iXpX<X<X! M.Y V r < a.S.P.<X1X#X",
",X,X+X+X X XV  .sX5X>X<X7XeX6X>X$X>X Xq uX6X>X>XL.f.d.x g.N.&XJ H %XwX>X-X2XtX>XQ n 9.t   _ ' +X+XoX",
"OX+X+X+X.XXXA H <X>X>X2X>X>X>X>X>X$X+XJ 1X>X,X2XM.b.M A ( n.oX{ | 9X7X>X>X6X+X'.Q n 0.g.7 '.XX+X+X>X",
"!.+X+X+X+X+XV } $X&X7XXX X&X>X-X>X>X Xr .X,X<X&X/._ 1 j.s.l ! I N $X&X>X&X).! j i.u.k m w @. X+XoX`.",
"A +X(.!.+X_.V } XX[.[.`. X&X>X[.$X>X/.F '.[.[.[.XX_ 6.C.c l f.s.g H.&X>XXX/ p b v B.^ S F /.!.). XJ ",
"V C C * 0 & V | o.C q ) D V & J { C C ! #.q V J [ e 7.e.+ ; c.- o L 0.Z Z g.s.f o # 8 C _ _ # & # # ",
",X.X].].].Y.T.Y.#.O.+.< > L.Y.T.' L.+.) _ _ ! J U..XY.L.L.Q O.O.O.n s.B.U j.R H.L.U.@.' J ! _ o.H U.",
"wXeX8X7X7X7X7X<X>X$XJ g c h.&X&X.X,X,X(.^.)./.F 9XwX7X8X8X&X>X7X>XD M -.c x ) 7X-X,X<XoX(.^.XX[ H uX",
"$X$X&X&X>X>X>X5X&X5XQ.o c 9.&X+XoX+X+X+X X+X@.t 9X&X1X7X>X>X>X>X$Xn.g.s.g 9.9.] 5X&X+X+X+X+XXX] V |.",
"&X&X&X5X>X+X[. X&X+Xq , P J XXoXoX XoX).)..XK.F 1X7X&X&X5X>X`.M.L 6.3.- O B B =X=XoX+XoX XoX+XG.q ).",
".X&X&X&X&XoXoXoX&XXXN u.M k m.!. X+XoX^.`.`.[ q '.&X&XXXXXOXt.c z >.i o G ^.).=XXX`.+X+XoXoX+XP.& ).",
"F J { J !.!.^.Q.[ 0 V.u.c g 9.9.L C A C V V & H { J ] { Q.n.b g t + o ]  .) A V C V J $ F C V V q /.",
"J } | |  .X. . .K H 0 .   v z v U H c 9.0.y H N 0.x & C r G k P 0.@ F H H K G K * H  .U.o. . .}  . .",
"&X+XK.} uXeX8X7X>X9X,X^ c.B.9.> y.l h f.g.-.U g.0.g c m.q {.( 0.v.c.}.7X<X<X=X XG } uXdXuX9XuX7XeX8X",
"&X$XK.H 8X+X+X$X,X-X+Xz.8.p.< > s.g V N V.S.~ L j v c 9.e.s.M j p.8.D.&X>X5X>X+X_ ].uX>X>X5X7X7X&X>X",
"5X&X_ H !..XoXoXXX[.+X`.Q Q J o ;.w _ ` ' D _ A d.s.0.X 5.u.j S V D { [.[. X>XXXq '.$X&X>X8X[.>X>X&X",
"&X$X! H [.[.oXXX[ `.+X XXX+X^.0 ! @./.+X[.[.>X[.b.y.1 @ . P q.n.D @.)..XXX$X$X Xq K.&X$X>X[._.>X&X$X",
"[.@.) } Q.S _ J 0 ! @.J ) _ S C ! _ _ { ' _.{ _ ) j , < q w u.v.S `.[.^._._.K._ J O.@.`.@.J Q.[.`.^.",
"F * F r H r C F r r q q q q * G G F r H H K q * F & d.s.- O @ ; q F J C K G * H C } G H H G H G J K ",
"+.iXuXuXuX&XqX$X'.[.oXXX+.2XgXuXuXeX.X>X8X9X&XXX/.6.6.9.) `.tX-X+X`.[.+X[._ 9XjXsXuXuXtX2X9X4X&X X).",
" .eX>X7X&X5X<X9X&XXX$X.XF 2X7X&X1X7X&X>X5X&X5X&Xj <.%.x c t.=X9X>X$X+X>XL.F 8X&X>X7X&X7X,X>X7X,X$X) ",
"| &X&X7X>X>X&X>X$XoX&X[.! 2X5X>X5X&X&X$X.X.X&X{.b c x v z 9.~.>X>X-X-X,X`.C /.&X$X>X>X>X&XXXXX+X&X) ",
"K [.&XoX&X&X>X>X.XoX$XoXF ].5X&X&X5X&XoX[.&X&XM.9.g v s.s.K.&X&X>X$X>X>XoXQ L.oX&X&X>X&XXX[.>X&X+XA ",
"F ).)..XXXoXoX+X[.`.'.@.F /.[. X/._.+X/.oX). X).# @ x w.<._ [.oX[.+XoXoX).C /./.[. XXX$XXXXX)..X).J ",
"F ! q F o.o._ _ _ F F C  .o.q J J J J J _ _ J q V @ , 0 = n 1 ! * _ G F A H _ * F K G _ _ _ _ J q J ",
"1X%X[./.'.].sXyX2X;X%X X1X1XoX'.L.H 8XaXyXyX;X%X%X~ u.d.g s.u.^ pX1X;X;X'.<X;X'.#.{ } iXdX8X1X%X;X,X",
">X&X&XoXC 1XwX&X>X8X7XeX7X&XoX&X_ r gX7X>X>X8X6X>X' V.x 0 v 6.6.{ +X+X-XeX&X.X`.XXQ G hX>X>X&X<XqX7X",
">X>X&X>XJ '.-X>X,X7X$X5X>X>X,X&X/.F tX>X7X2X5X7X$XoX) V C p r.3.) +X>XOX>X+X+X+X X_ H 1X&X5X&X7X&X>X",
">X>X>X+XC #.&X>X,XoX[.>X>X&X5X&Xo.r ,X>X8XoXoX&X X^.m.n < i.i.S ^.+X`.!.oXoX+X+X+XD G XX&X&X&XoX+X>X",
"[.oX>X[.& L. X[.[.`.oXoX$X[.&X&XQ G oX}.[.).$X&X[.h.f.c # c B.U +X.XJ C +X{.!.+X`.S F +X[.$X$XQ. X>X",
"{ { C & _ o.A C J A u O & ) { q ) | K.q C { / z z V.v z z h + @ q 9 9 0 q 0 q q & q H L.C q q G M.) ",
"E Y.W X. .J H O.O.! 1.+..X].].].T.T.T.P.H.O.v c c u.: l z b T ! ! W d r H.H.Y.H.H.G.! +.#._ J J d P.",
"b.}.Z.].:XM.@.x.oXG 1.M. X3X7X-X>X,X,X.X+X X1 %.c V.<.E M.*XE.' /.D.p d 2X XE.P..X[.).x.oX+X{ & d .X",
"2.u 2.P.}.2.}.G.U C &.i /.k.>XR.G.Z.).R.G.a - c , 2 *.4  XL.R.a ).M.9 &.|./.F.G.P.^.@.k.K.L.>.# :.J.",
">.5 >.7 R.D.G.;.x.P 3 i G.l.a J.x.2.i z.>.%.u.- = S i 3 L.G.x.u G.1.U 9 k.G.k.{ W ,.Q >.i ^ >.9 1.5 ",
"*.=.>.a U ~ l.5 :.&.5 u a a >.l.u &.i ' -.j.; h c v i U Y ;.i &.x.u =.8 u F.u l.p :.i 1.3 1 1.4 =.4 ",
"3 : =.: 3 u 4 : a 4 4 3 a 4 5 4 a : 3 =.3 V 0 G g 0.3 4 : =.a 2.: 4 4 9 : u : :.4 u : &.4 5 &.4 4 : "
};
